<svg width="256" height="366" viewBox="0 0 256 366" fill="none" xmlns="http://www.w3.org/2000/svg">
<g clip-path="url(#clip0_2685_2745)">
<path d="M182.022 9.14729C185.004 12.849 186.524 17.844 189.565 27.8339L256 246.073C231.437 233.331 204.735 224.141 176.574 219.183L133.318 73.0084C132.61 70.6166 130.413 68.9758 127.919 68.9758C125.419 68.9758 123.218 70.6252 122.516 73.0252L79.7837 219.109C51.4922 224.045 24.668 233.252 0 246.04L66.7608 27.7834C69.8112 17.8106 71.3366 12.8242 74.3187 9.12934C76.951 5.86739 80.3752 3.33408 84.2646 1.77079C88.6702 0 93.8845 0 104.314 0H151.997C162.44 0 167.661 0 172.071 1.77448C175.963 3.34102 179.39 5.87946 182.022 9.14729Z" fill="white"/>
<path d="M189.972 256.461C179.02 265.826 157.16 272.213 131.981 272.213C101.076 272.213 75.1735 262.592 68.3 249.652C65.8427 257.068 65.2917 265.555 65.2917 270.977C65.2917 270.977 63.6727 297.6 82.1893 316.117C82.1893 306.502 89.984 298.708 99.5986 298.708C116.078 298.708 116.06 313.085 116.045 324.75C116.045 325.099 116.044 325.447 116.044 325.791C116.044 343.496 126.865 358.674 142.254 365.071C139.955 360.343 138.666 355.035 138.666 349.424C138.666 332.538 148.58 326.251 160.101 318.943C169.268 313.129 179.454 306.67 186.474 293.712C190.136 286.951 192.216 279.207 192.216 270.977C192.216 265.916 191.429 261.039 189.972 256.461Z" fill="#FF5D01"/>
</g>
<defs>
<clipPath id="clip0_2685_2745">
<rect width="256" height="366" fill="white"/>
</clipPath>
</defs>
</svg>
