<svg width="255" height="289" viewBox="0 0 255 289" fill="none" xmlns="http://www.w3.org/2000/svg">
<g clip-path="url(#clip0_2685_2749)">
<path d="M255.11 0L231.868 260.36L127.399 289.322L23.2165 260.401L0 0H255.11Z" fill="#E44D26"/>
<path d="M127.555 267.186L211.971 243.782L231.832 21.293H127.555V267.186Z" fill="#F16529"/>
<path d="M82.3749 85.1679H127.555V53.2305H47.4717L48.2362 61.7987L56.0857 149.809H127.555V117.872H85.2936L82.3749 85.1679Z" fill="#EBEBEB"/>
<path d="M89.5725 165.777H57.5127L61.9871 215.923L127.408 234.084L127.555 234.044V200.816L127.415 200.853L91.8462 191.249L89.5725 165.777Z" fill="#EBEBEB"/>
<path d="M127.444 149.808H166.771L163.064 191.228L127.444 200.842V234.068L192.917 215.923L193.397 210.527L200.902 126.447L201.682 117.871H127.444V149.808Z" fill="white"/>
<path d="M127.444 85.0898V85.1679H204.588L205.228 77.9893L206.683 61.7987L207.447 53.2305H127.444V85.0898Z" fill="white"/>
</g>
<defs>
<clipPath id="clip0_2685_2749">
<rect width="255" height="289" fill="white"/>
</clipPath>
</defs>
</svg>
