<svg width="478" height="77" viewBox="0 0 478 77" fill="none" xmlns="http://www.w3.org/2000/svg">
<path d="M20 67.9394L87.9391 0.00038147L96.4645 8.52579L28.5658 76.4648L20 67.9394Z" fill="black"/>
<path d="M86 55.8723L101.798 39.9695L90.9627 29.1082L98.0032 22.0008L115.929 39.9695L93.0405 62.9297L86 55.8723Z" fill="black"/>
<path d="M29.9297 23.0574L14.1317 38.9602L24.967 49.8215L17.9265 56.9289L0.000760932 38.9602L22.8892 16L29.9297 23.0574Z" fill="black"/>
<path d="M477.451 25.2656L456.707 75.132H446.783L426.039 25.2656H437.01L451.82 64.6102L466.63 25.2656H477.451Z" fill="black"/>
<path d="M417.862 69.1991C411.679 73.8201 404.88 76.1305 397.467 76.1305C392.181 76.1305 387.444 74.967 383.255 72.6399C379.066 70.3128 375.758 67.138 373.332 63.1154C370.905 59.0929 369.691 54.555 369.691 49.5019C369.691 44.6815 370.805 40.3764 373.032 36.5865C375.26 32.7634 378.302 29.7548 382.158 27.5607C386.014 25.3666 390.386 24.2695 395.273 24.2695C400.326 24.2695 404.764 25.4663 408.587 27.8599C412.444 30.2535 415.435 33.5945 417.563 37.883C419.724 42.1383 420.804 47.0751 420.804 52.6934V54.2891H380.762C381.36 56.8821 382.474 59.1594 384.103 61.1208C385.765 63.0489 387.826 64.5616 390.286 65.6586C392.78 66.7224 395.572 67.2543 398.664 67.2543C404.182 67.2543 409.252 65.4591 413.873 61.8688L417.862 69.1991ZM380.313 47.2081H411.28C410.948 44.4155 410.083 41.9887 408.687 39.9276C407.291 37.8332 405.479 36.2042 403.251 35.0407C401.057 33.8439 398.581 33.2455 395.821 33.2455C393.029 33.2455 390.519 33.8439 388.292 35.0407C386.064 36.2042 384.252 37.8332 382.856 39.9276C381.493 42.022 380.645 44.4488 380.313 47.2081Z" fill="black"/>
<path d="M359.019 75.1316H349.993L349.445 68.0007C347.184 70.5273 344.458 72.5219 341.267 73.9847C338.108 75.4142 334.634 76.1289 330.845 76.1289C326.057 76.1289 321.769 74.9986 317.979 72.738C314.189 70.4774 311.197 67.3857 309.003 63.4629C306.842 59.54 305.762 55.1185 305.762 50.1984C305.762 45.245 306.842 40.8235 309.003 36.9339C311.197 33.0111 314.189 29.9194 317.979 27.6588C321.769 25.3982 326.057 24.2679 330.845 24.2679C334.435 24.2679 337.759 24.9162 340.818 26.2127C343.909 27.5092 346.569 29.321 348.796 31.6481V0.332031H359.019V75.1316ZM332.54 66.9535C335.565 66.9535 338.291 66.2554 340.718 64.8591C343.178 63.4629 345.14 61.5679 346.602 59.1743C348.065 56.7808 348.796 54.0547 348.796 50.9963V49.3008C348.796 46.2423 348.065 43.5163 346.602 41.1227C345.14 38.7291 343.178 36.8508 340.718 35.4878C338.291 34.1248 335.565 33.4433 332.54 33.4433C329.448 33.4433 326.672 34.1747 324.212 35.6374C321.752 37.1002 319.807 39.0948 318.378 41.6214C316.948 44.1147 316.234 46.9571 316.234 50.1485C316.234 53.34 316.948 56.199 318.378 58.7255C319.807 61.2521 321.752 63.2634 324.212 64.7594C326.672 66.2221 329.448 66.9535 332.54 66.9535Z" fill="black"/>
<path d="M300.526 25.2656L279.781 75.132H269.858L249.113 25.2656H260.084L274.894 64.6102L289.705 25.2656H300.526Z" fill="black"/>
<path d="M241.184 75.1332H232.358L231.76 68.7503C229.931 71.0774 227.621 72.8892 224.828 74.1858C222.036 75.4823 218.944 76.1305 215.553 76.1305C211.996 76.1305 208.821 75.4324 206.029 74.0362C203.236 72.6399 201.042 70.7284 199.446 68.3015C197.851 65.8747 197.053 63.1154 197.053 60.0237C197.053 56.7658 197.917 53.9068 199.646 51.4467C201.374 48.9534 203.735 47.0086 206.727 45.6123C209.719 44.1828 213.126 43.4681 216.949 43.4681C219.343 43.4681 221.77 43.7507 224.23 44.3158C226.723 44.881 228.967 45.6788 230.962 46.7094V44.8643C230.962 42.4375 230.33 40.3597 229.067 38.631C227.837 36.8691 226.141 35.5227 223.981 34.5919C221.853 33.661 219.493 33.1956 216.9 33.1956C214.606 33.1956 212.262 33.5945 209.868 34.3924C207.508 35.1903 205.281 36.4203 203.186 38.0825L200.095 29.7548C203.12 27.9596 206.261 26.5966 209.519 25.6658C212.811 24.735 216.035 24.2695 219.193 24.2695C223.715 24.2695 227.604 25.1671 230.862 26.9623C234.153 28.7575 236.696 31.3173 238.492 34.6417C240.287 37.9329 241.184 41.8225 241.184 46.3105V75.1332ZM217.548 67.4538C219.908 67.4538 222.086 66.9718 224.08 66.0077C226.075 65.0103 227.687 63.6141 228.917 61.8189C230.181 59.9905 230.862 57.8628 230.962 55.436V54.7379C229.266 53.4746 227.355 52.4939 225.227 51.7958C223.133 51.0644 220.989 50.6987 218.794 50.6987C215.437 50.6987 212.644 51.4966 210.417 53.0923C208.19 54.688 207.076 56.7325 207.076 59.2259C207.076 60.7883 207.525 62.2012 208.422 63.4645C209.353 64.6945 210.6 65.6752 212.162 66.4066C213.758 67.1047 215.553 67.4538 217.548 67.4538Z" fill="black"/>
<path d="M185.185 75.1316H176.159L175.611 68.0007C173.35 70.5273 170.624 72.5219 167.433 73.9847C164.274 75.4142 160.8 76.1289 157.011 76.1289C152.223 76.1289 147.935 74.9986 144.145 72.738C140.355 70.4774 137.363 67.3857 135.169 63.4629C133.008 59.54 131.928 55.1185 131.928 50.1984C131.928 45.245 133.008 40.8235 135.169 36.9339C137.363 33.0111 140.355 29.9194 144.145 27.6588C147.935 25.3982 152.223 24.2679 157.011 24.2679C160.601 24.2679 163.925 24.9162 166.984 26.2127C170.076 27.5092 172.735 29.321 174.962 31.6481V0.332031H185.185V75.1316ZM158.706 66.9535C161.731 66.9535 164.457 66.2554 166.884 64.8591C169.344 63.4629 171.306 61.5679 172.768 59.1743C174.231 56.7808 174.962 54.0547 174.962 50.9963V49.3008C174.962 46.2423 174.231 43.5163 172.768 41.1227C171.306 38.7291 169.344 36.8508 166.884 35.4878C164.457 34.1248 161.731 33.4433 158.706 33.4433C155.614 33.4433 152.838 34.1747 150.378 35.6374C147.918 37.1002 145.973 39.0948 144.544 41.6214C143.114 44.1147 142.4 46.9571 142.4 50.1485C142.4 53.34 143.114 56.199 144.544 58.7255C145.973 61.2521 147.918 63.2634 150.378 64.7594C152.838 66.2221 155.614 66.9535 158.706 66.9535Z" fill="black"/>
</svg>
