<svg width="255" height="289" viewBox="0 0 255 289" fill="none" xmlns="http://www.w3.org/2000/svg">
<g clip-path="url(#clip0_2685_2761)">
<path d="M127.399 289.322L23.2165 260.401L0 0H255.11L231.868 260.36L127.399 289.322Z" fill="#264DE4"/>
<path d="M211.971 243.782L231.832 21.293H127.555V267.186L211.971 243.782Z" fill="#2965F1"/>
<path d="M53.2236 117.871L56.0861 149.808H127.555V117.871H53.2236Z" fill="#EBEBEB"/>
<path d="M47.4717 53.2305L50.3749 85.1679H127.555V53.2305H47.4717Z" fill="#EBEBEB"/>
<path d="M127.555 200.816L127.415 200.853L91.8462 191.249L89.5725 165.777H57.5127L61.9871 215.923L127.408 234.084L127.555 234.044V200.816Z" fill="#EBEBEB"/>
<path d="M201.682 117.872L207.447 53.2305H127.444V85.1679H172.447L169.541 117.872H127.444V149.809H166.771L163.064 191.229L127.444 200.843V234.069L192.917 215.923L193.397 210.528L200.902 126.448L201.682 117.872Z" fill="white"/>
</g>
<defs>
<clipPath id="clip0_2685_2761">
<rect width="255" height="289" fill="white"/>
</clipPath>
</defs>
</svg>
